PathFileType	4	(X/Y/Z)	C:\Users\Basilio\Documents\Thesis Gigler\squatting_fais\c3dfiles\075\SLS_back_pre4\markers_experimental.trc
DataRate	CameraRate	NumFrames	NumMarkers	Units	OrigDataRate	OrigDataStartFrame	OrigNumFrames
200.000000	200.000000	4	61	mm	200.000000	337	1351
Frame#	Time	FHD			LBHD			C7			T10			CLAV			LSHO			LUUPA			LMUPA			LDUPA			LLEP			LMEP			LRAD			LUL			LRFIN			RSHO			RUPA1			RMUPA			RDUPA			RLEP			RMEP			RRAD			RUL			RUFIN			LASI			RASI			USACR			LSACR			RSACR			LTHI1			LTHI2			LTHI3			LTHI4			LLFC			LMFC			LTIB1			LTIB2			LTIB3			LTIB4			LLMAL			LMMAL			LHEE			LMT1			LMT2			LMT5			RTHI			RTHI2			RTHI3			RTHI4			RLFC			RMFC			RTIB1			RTIB2			RTIB3			RTIB4			RLMAL			RMMAL			RHEE			RMT1			RMT2			RMT5			RBHD			
		X1	Y1	Z1	X2	Y2	Z2	X3	Y3	Z3	X4	Y4	Z4	X5	Y5	Z5	X6	Y6	Z6	X7	Y7	Z7	X8	Y8	Z8	X9	Y9	Z9	X10	Y10	Z10	X11	Y11	Z11	X12	Y12	Z12	X13	Y13	Z13	X14	Y14	Z14	X15	Y15	Z15	X16	Y16	Z16	X17	Y17	Z17	X18	Y18	Z18	X19	Y19	Z19	X20	Y20	Z20	X21	Y21	Z21	X22	Y22	Z22	X23	Y23	Z23	X24	Y24	Z24	X25	Y25	Z25	X26	Y26	Z26	X27	Y27	Z27	X28	Y28	Z28	X29	Y29	Z29	X30	Y30	Z30	X31	Y31	Z31	X32	Y32	Z32	X33	Y33	Z33	X34	Y34	Z34	X35	Y35	Z35	X36	Y36	Z36	X37	Y37	Z37	X38	Y38	Z38	X39	Y39	Z39	X40	Y40	Z40	X41	Y41	Z41	X42	Y42	Z42	X43	Y43	Z43	X44	Y44	Z44	X45	Y45	Z45	X46	Y46	Z46	X47	Y47	Z47	X48	Y48	Z48	X49	Y49	Z49	X50	Y50	Z50	X51	Y51	Z51	X52	Y52	Z52	X53	Y53	Z53	X54	Y54	Z54	X55	Y55	Z55	X56	Y56	Z56	X57	Y57	Z57	X58	Y58	Z58	X59	Y59	Z59	X60	Y60	Z60	X61	Y61	Z61	

338	1.685	-236.0507507324219	1711.006469726563	-770.773864746094	-375.7020263671876	1592.994384765625	-848.5389404296877	-415.1326293945314	1476.215087890625	-793.1306152343752	-439.277801513672	1155.86572265625	-795.3009033203127	-268.5488586425782	1419.551879882813	-781.2124023437502	-298.0643920898438	1463.190673828125	-923.0043945312502	-157.6135864257813	1361.261352539063	-1024.159423828125	-124.6365585327149	1380.588256835938	-992.4235839843752	-90.3909149169922	1345.76171875	-1026.667724609375	-7.665790081024172	1326.85888671875	-1015.935424804688	-33.3360710144043	1256.2646484375	-970.2110595703127	nan	nan	nan	205.9415740966797	1343.94140625	-870.735534667969	205.5477905273438	1368.814697265625	-763.8500366210939	-319.0749511718751	1451.6904296875	-641.1231079101564	-194.5817565917969	1347.196533203125	-521.0831909179689	-154.91015625	1364.643310546875	-544.1475830078126	-128.9937591552735	1326.8271484375	-504.3986816406251	-58.63662338256837	1313.171142578125	-499.711639404297	-56.82131576538087	1241.296997070313	-535.4497070312501	134.9909820556641	1347.408935546875	-694.0314331054689	167.0217437744141	1350.433471679688	-624.5830688476564	206.9692535400391	1384.831787109375	-730.1098022460939	-290.9259643554688	977.4606933593752	-929.1812133789065	-286.6819152832032	977.2125244140627	-676.5712890625001	-442.0327148437501	1057.899169921875	-802.2070312500002	-450.050506591797	1027.782104492188	-830.857849121094	-450.436248779297	1026.622802734375	-773.126159667969	-310.2103881835938	742.5625000000001	-1011.692016601563	-269.2654724121094	667.9561767578126	-1015.389953613281	-227.4276428222657	675.4790039062501	-990.7357177734377	-291.4279785156251	611.5690917968751	-1017.251647949219	-299.6341247558594	520.0071411132814	-1012.274230957031	-283.7554016113282	486.4273071289064	-883.6374511718752	-366.0730285644532	409.8464965820314	-977.1250610351565	-427.7357788085939	447.556365966797	-1026.065307617188	-417.1107482910157	409.5296020507814	-1006.777282714844	-490.607147216797	381.2141113281251	-976.3567504882815	-651.6566772460939	397.4334716796876	-994.388366699219	-622.6196899414064	377.3340454101563	-912.5620727539065	-694.5139770507814	442.2484130859376	-950.0019531250002	-657.3580932617189	239.0334625244141	-911.8748168945315	-659.7650756835939	231.4384155273438	-960.5959472656252	-696.8943481445314	260.8873901367188	-1008.304443359375	-339.7011413574219	772.2476806640627	-622.7525024414064	-294.8836059570313	724.1709594726564	-628.8510742187501	-264.1680908203126	734.3881225585939	-639.2359619140626	-312.9564514160157	641.8889770507814	-645.0350341796876	-310.8242492675782	490.6541137695314	-686.4727172851564	-281.2975158691407	497.7829589843751	-811.0386352539065	-273.9796447753907	350.1380920410157	-771.7202148437502	-326.6393127441407	271.0100708007813	-719.5683593750001	-292.4770812988282	266.4750061035157	-754.6328735351564	-311.9786987304688	228.5251159667969	-794.710388183594	-391.9463500976564	115.0012969970703	-766.9309082031251	-364.8973083496094	141.9873046875	-846.1849365234377	-448.9974365234376	98.68270111083987	-824.0130615234377	-246.5955963134766	55.31172180175783	-837.124938964844	-245.4760742187501	55.59053421020509	-794.9096679687502	-283.0804443359376	36.03192138671876	-742.2769775390626	nan	nan	nan	
339	1.69	-235.8529510498047	1710.825805664063	-770.6470947265627	-375.5207824707032	1592.730834960938	-848.2693481445315	-414.857147216797	1476.046997070313	-792.847351074219	-439.259979248047	1155.681396484375	-795.1309814453127	-268.2434692382813	1419.345703125	-781.0237426757815	-297.8392333984376	1463.000610351563	-922.833923339844	-157.2976837158203	1361.083251953125	-1023.958679199219	-124.8608932495117	1380.553100585938	-992.4260253906252	-90.22217559814455	1345.712158203125	-1026.575317382813	-7.589421749114992	1326.766845703125	-1015.676635742188	-33.1274528503418	1256.193359375	-969.8859863281252	nan	nan	nan	206.1309967041016	1343.927856445313	-870.6387329101565	205.5640563964844	1368.868530273438	-763.6796875000001	-318.8908081054688	1451.411499023438	-641.0292968750001	-194.2699127197266	1346.97509765625	-520.8477172851564	-154.6328125	1364.387817382813	-543.9311523437501	-128.7462615966797	1326.605712890625	-504.2627258300782	-58.32997131347658	1313.029418945313	-499.5330200195314	-56.60980224609376	1241.124877929688	-535.2162475585939	135.3550415039063	1347.341430664063	-693.9268188476564	167.2724151611328	1350.372192382813	-624.4428100585939	207.2127075195313	1384.802978515625	-729.9534301757814	-291.1590270996094	977.2058105468752	-929.1429443359377	-286.8522949218751	976.8323364257815	-676.5485839843751	-442.1838378906251	1057.8857421875	-802.1047973632815	-450.2426757812501	1027.7333984375	-830.8419189453127	-450.5345764160157	1026.599731445313	-773.0906982421877	-310.8497924804688	742.2880859375001	-1011.702819824219	-270.5688476562501	667.9456787109376	-1015.752746582031	-228.0448608398438	675.2894897460939	-990.9702148437502	-292.0936584472657	611.3074951171876	-1017.3818359375	-300.4063415527344	519.8869628906251	-1012.61669921875	-284.4161682128907	486.2776489257814	-883.7681274414065	-367.0321350097657	409.6924438476564	-976.7218017578127	-428.5611572265626	447.6426391601564	-1026.008544921875	-417.8281250000001	409.3441162109376	-1006.630004882813	-491.5486450195314	381.6438293457032	-976.1325683593752	-653.4088134765626	399.0434875488282	-994.5974121093752	-623.5899658203126	378.3768005371094	-912.2588500976565	-695.3794555664064	443.7175598144532	-949.912536621094	-659.1140747070314	240.3362579345704	-911.3489379882815	-661.7047119140626	232.5408020019532	-960.3276367187502	-698.6098022460939	262.2655334472657	-1008.024291992188	-339.8488769531251	772.0395507812502	-622.5315551757814	-294.9412841796876	724.1406860351564	-628.6731567382814	-264.2541503906251	734.1919555664064	-639.0409545898439	-312.8882751464844	641.6400146484376	-644.7849121093751	-310.5309753417969	490.4848022460939	-686.2437744140626	-280.8724975585938	497.5567321777345	-810.8209228515627	-273.7436523437501	349.9422302246094	-771.3823242187502	-326.5684204101563	270.9396972656251	-719.2947998046876	-292.3732299804688	266.4038696289063	-754.3360595703126	-311.8735961914063	228.4402923583985	-794.4941406250002	-392.0164794921876	114.8937911987305	-766.7951660156251	-364.8644104003907	142.014633178711	-845.9260253906252	-448.9948730468751	98.67483520507815	-823.9580688476565	-246.6207885742188	55.34715652465822	-837.0579833984377	-245.5100097656251	55.59238815307619	-794.834167480469	-283.0786132812501	35.96593856811524	-742.2565917968751	nan	nan	nan	
340	1.695	-235.6180725097657	1710.555786132813	-770.4829711914065	-375.3469848632813	1592.520141601563	-848.0047607421877	-414.5125122070314	1475.816772460938	-792.6311035156252	-439.2379455566407	1155.56201171875	-795.0459594726565	-267.9874572753907	1419.085571289063	-780.7740478515627	-297.6288757324219	1462.793212890625	-922.6250000000002	-157.2370300292969	1361.014404296875	-1023.784240722656	-124.7134017944336	1380.443725585938	-992.2771606445315	-90.08843994140626	1345.634887695313	-1026.351196289063	-7.353633880615236	1326.674438476563	-1015.5478515625	-32.95068740844727	1256.116577148438	-969.6897583007815	nan	nan	nan	206.2382507324219	1343.866943359375	-870.604431152344	205.7849884033204	1368.764892578125	-763.5168457031251	-318.6501770019532	1451.14013671875	-640.8370361328126	-193.9587707519532	1346.850341796875	-520.8158569335939	-154.3477325439453	1364.278930664063	-543.8020019531251	-128.4678955078125	1326.485107421875	-504.1090393066407	-57.98728942871095	1312.91650390625	-499.3769531250001	-56.5663185119629	1240.818603515625	-535.0179443359376	135.4990539550782	1347.1767578125	-693.6624145507814	167.496322631836	1350.281127929688	-624.2850341796876	207.4720458984376	1384.751953125	-729.8245849609376	-291.3765869140626	976.8988037109377	-929.1778564453127	-287.0309448242188	976.4405517578127	-676.5245361328126	-442.2868957519532	1057.833740234375	-802.0615234375002	-450.3999938964845	1027.638061523438	-830.8323974609377	-450.7046813964845	1026.496826171875	-773.0531005859377	-312.0667419433594	742.2920532226564	-1011.983642578125	-270.4759521484376	667.4721679687501	-1015.829223632813	-228.7765808105469	674.9518432617189	-991.173767089844	-292.7212524414063	611.0150146484376	-1017.569030761719	-301.0119628906251	519.7307128906251	-1012.873596191406	-285.2757873535157	486.096649169922	-883.8935546875002	-368.3163757324219	409.829803466797	-976.8385009765627	-429.2368469238282	447.7069396972657	-1026.019409179688	-418.7442016601564	409.5519409179689	-1006.482543945313	-492.9844665527345	382.1669311523438	-976.6351318359377	-653.3565063476564	399.611541748047	-993.940612792969	-624.6364135742189	379.3134155273438	-912.0108642578127	-696.2728271484376	445.0056152343751	-949.904235839844	-660.8078002929689	241.3643341064454	-910.883483886719	-663.1154174804689	233.8257446289063	-959.523132324219	-699.9788818359376	263.5547180175782	-1007.609436035156	-339.9798889160157	771.8081054687502	-622.3639526367189	-295.0344238281251	723.9257202148439	-628.5686645507814	-264.3768920898438	734.0364379882814	-638.8618164062501	-312.8031921386719	641.4878540039064	-644.5666503906251	-310.2217712402344	490.3237915039064	-685.9426879882814	-280.4880371093751	497.4515380859376	-810.4847412109377	-273.4239807128907	349.7167358398438	-771.1348266601565	-326.4199829101563	270.8510131835938	-719.0977172851564	-292.3201293945313	266.3667602539063	-754.1685180664064	-311.6845703125001	228.3481445312501	-794.2949829101565	-392.0525817871095	114.8620910644532	-766.6740722656251	-364.7608642578126	142.1534729003907	-845.7941894531252	-449.0025329589845	98.69927978515628	-823.8673095703127	-246.6885070800782	55.40368652343751	-837.0452270507815	-245.5749969482422	55.59486770629884	-794.8465576171877	-283.1067810058594	35.95137023925782	-742.1854858398439	nan	nan	nan	
341	1.7	-235.3978424072266	1710.253784179688	-770.3325805664065	-375.2447509765626	1592.182861328125	-847.8560791015627	-414.2254028320314	1475.5673828125	-792.2983398437502	-439.2114562988282	1155.379638671875	-794.9210205078127	-267.6962890625001	1418.860229492188	-780.6155395507815	-297.4091491699219	1462.549682617188	-922.4241943359377	-157.0658721923828	1360.901123046875	-1023.557739257813	-124.4846115112305	1380.30859375	-992.1021118164065	-89.91612243652345	1345.526977539063	-1026.1826171875	-7.368677616119387	1326.6025390625	-1015.44580078125	-32.75036239624024	1256.04052734375	-969.7214355468752	nan	nan	nan	206.4972686767579	1343.843139648438	-870.4812011718752	206.0827941894532	1368.60302734375	-763.4280395507814	-318.2837524414063	1450.814819335938	-640.5416259765626	-193.6905212402344	1346.571533203125	-520.4204711914064	-154.0586853027344	1364.133056640625	-543.5946655273439	-128.1943359375	1326.235595703125	-503.994354248047	-57.73545837402345	1312.67236328125	-499.271942138672	-56.2242774963379	1240.64990234375	-534.8350830078126	135.8780059814453	1347.011840820313	-693.5739746093751	167.7535552978516	1350.115234375	-624.1531372070314	207.7985992431641	1384.66162109375	-729.6917724609376	-291.5804748535157	976.6164550781252	-929.1369628906252	-287.2497558593751	975.9147949218752	-676.5949096679689	-442.3664550781251	1057.739013671875	-802.0506591796877	-450.6568908691407	1027.538452148438	-830.719909667969	-450.8284606933595	1026.468017578125	-772.9856567382815	-311.8356933593751	741.7568969726564	-1011.851806640625	-271.3356628417969	667.2465209960939	-1016.084167480469	-229.3096618652344	674.7205810546876	-991.3658447265627	-294.1737060546876	610.9458618164064	-1017.847229003906	-301.6503906250001	519.5594482421876	-1013.021057128906	-285.7933349609376	486.0068359375001	-883.9614868164065	-369.1828308105469	409.8890686035157	-976.8088989257815	-429.6079406738282	447.5621032714845	-1025.768920898438	-419.5457763671876	409.5197143554689	-1006.304443359375	-493.4196777343751	382.4747314453126	-975.599304199219	-654.1284179687501	400.5599975585939	-993.7935791015627	-625.6259765625001	380.4338378906251	-911.7430419921877	-696.9236450195314	446.1691284179689	-949.807800292969	-662.5222778320314	242.6308593750001	-910.247253417969	-664.3047485351564	234.6511688232422	-958.9920043945315	-700.7179565429689	264.4669494628907	-1007.29736328125	-340.0994262695313	771.580017089844	-622.1894531250001	-295.0543518066407	723.8207397460939	-628.1170043945314	-264.4292907714844	733.9493408203126	-638.6483154296876	-312.7042236328126	641.3023681640626	-644.3112182617189	-309.9118957519532	490.121063232422	-685.6698608398439	-279.9109802246094	497.1853942871095	-810.1734619140627	-273.1477355957032	349.5286865234376	-770.996520996094	-326.2243957519532	270.6991882324219	-718.9480590820314	-292.1717529296876	266.2384338378907	-754.0082397460939	-311.4418334960938	228.2570190429688	-794.0831298828127	-392.069061279297	114.8745040893555	-766.5940551757814	-364.6956481933594	142.2342681884766	-845.6399536132815	-448.997283935547	98.70826721191409	-823.802185058594	-246.6481018066407	55.41119766235353	-836.986999511719	-245.5581512451172	55.56763076782228	-794.7884521484377	-283.1084899902344	35.92679977416993	-742.1888427734376	nan	nan	nan	
